<svg version="1.1" id="Layer_1" xmlns="http://www.w3.org/2000/svg" xmlns:xlink="http://www.w3.org/1999/xlink" x="0px" y="0px"
	 width="100%" viewBox="0 0 1024 1024" enable-background="new 0 0 1024 1024" xml:space="preserve">
<path fill="#ffffff" opacity="1.000000" stroke="none" 
	d="
M515.559265,617.409485 
	C524.348206,611.341980 532.817200,605.427979 541.344360,599.598938 
	C543.929321,597.831909 544.958984,595.623047 544.893616,592.443298 
	C544.705383,583.280396 544.905151,574.109619 544.733093,564.946106 
	C544.671814,561.682007 545.715393,559.252502 548.029724,556.994141 
	C553.156799,551.991150 558.073303,546.773071 563.120117,541.686768 
	C565.009827,539.782166 565.638855,537.797241 565.288391,534.971619 
	C564.341248,527.334290 569.932861,520.901001 577.210876,520.708984 
	C584.631409,520.513123 590.427063,526.289917 590.125427,533.581482 
	C589.807678,541.262695 583.792114,546.476074 575.886719,545.265564 
	C572.723572,544.781189 570.831970,545.768005 568.943176,547.832397 
	C567.819458,549.060608 566.752014,550.443542 565.382141,551.327332 
	C551.203918,560.475403 551.719543,574.246094 553.852356,589.734985 
	C584.232727,564.377502 609.392883,535.606812 628.736633,501.198212 
	C623.596191,498.720123 618.940369,499.362213 614.406067,499.595520 
	C604.409668,500.109985 594.408997,500.254089 584.436157,499.544556 
	C579.786011,499.213715 576.539734,500.627045 573.697021,504.297241 
	C558.483704,523.938965 540.777588,540.969238 519.972595,554.652893 
	C517.900635,556.015686 517.060120,557.650635 517.163513,560.036194 
	C517.264465,562.365112 517.347839,564.715759 517.148804,567.031982 
	C516.811096,570.961975 517.829773,573.745911 521.321960,576.309082 
	C526.596252,580.180237 526.818359,588.341858 522.551270,593.325562 
	C518.086060,598.540649 510.273560,599.266846 505.070404,594.950378 
	C499.993988,590.739075 498.476044,582.254639 503.442719,578.102478 
	C509.172516,573.312378 509.488861,567.694214 508.738831,561.590454 
	C507.945984,555.138550 510.418610,551.281677 515.697083,547.651917 
	C536.864990,533.095703 555.008118,515.253845 570.595398,494.856049 
	C572.723206,492.071625 575.020508,491.421417 578.271118,491.521210 
	C589.706543,491.872192 589.713013,491.775970 589.715942,480.484344 
	C589.719238,467.817902 589.541748,455.147858 589.804382,442.486877 
	C589.901978,437.778900 587.961731,436.236023 583.640015,436.316406 
	C577.308777,436.434143 570.973938,436.403442 564.641174,436.358276 
	C562.864319,436.345612 560.959412,436.780792 559.395691,435.475372 
	C559.745911,428.876251 560.738037,427.845612 566.979980,427.826355 
	C578.313110,427.791412 589.647461,427.709747 600.978760,427.850311 
	C604.249695,427.890869 606.675049,426.846313 608.922241,424.532501 
	C617.978638,415.207611 627.104980,405.949463 636.303894,396.765381 
	C638.243774,394.828644 638.968323,392.712891 638.949829,390.067810 
	C638.883423,380.568481 638.847046,371.067719 638.950500,361.569153 
	C638.982300,358.648346 637.965027,356.709167 635.672607,354.801208 
	C629.784424,349.900452 629.454529,341.603760 634.575867,336.168457 
	C639.280518,331.175354 647.215515,331.140289 652.025940,336.091339 
	C657.010437,341.221527 656.705933,350.084045 650.826965,354.720490 
	C647.917725,357.014862 647.171448,359.428375 647.220276,362.812256 
	C647.362000,372.643433 647.227234,382.478271 647.307068,392.310852 
	C647.328491,394.948730 646.729858,397.159912 644.848450,399.110352 
	C633.513977,410.860901 622.218140,422.648865 610.943787,434.457184 
	C608.805908,436.696259 606.098267,436.356323 603.466064,436.366028 
	C599.827271,436.379425 598.051086,437.795349 598.086426,441.763214 
	C598.218811,456.594910 598.175781,471.429108 598.063660,486.261383 
	C598.035095,490.040924 599.428650,491.730652 603.334656,491.672211 
	C612.332153,491.537659 621.333862,491.567719 630.332275,491.669891 
	C633.077576,491.701080 634.597473,490.484619 635.707764,488.112701 
	C642.703003,473.167816 649.456787,458.131012 653.963806,442.199097 
	C655.279724,437.547302 654.521667,436.690338 649.738831,436.284271 
	C645.203613,435.899261 641.610229,436.886200 639.217834,441.157745 
	C638.009521,443.315247 636.352844,445.262329 634.687195,447.114105 
	C631.654663,450.485291 630.116028,453.649109 631.746887,458.663116 
	C633.763306,464.862488 628.563416,471.359650 621.968567,472.418884 
	C615.054504,473.529419 608.677490,469.060730 607.638550,462.377167 
	C606.540283,455.311768 611.123474,448.293274 618.200806,448.075439 
	C623.433411,447.914337 626.062500,445.326630 628.587402,441.686615 
	C628.777283,441.412872 629.023560,441.171875 629.177673,440.880737 
	C634.463806,430.893311 642.016968,425.272186 653.957825,427.720093 
	C656.919067,428.327118 658.450378,426.736786 659.178894,423.780701 
	C663.245239,407.280975 666.141846,390.595490 667.729004,373.672821 
	C669.035950,359.737396 669.902466,345.795227 669.783020,331.783630 
	C669.750305,327.956940 668.757935,325.682465 665.029480,324.144745 
	C650.862976,318.302032 636.817017,312.167175 622.716919,306.162842 
	C621.988525,305.852661 621.175842,305.740417 620.451111,305.548920 
	C618.602051,307.371094 619.295044,309.491791 619.290649,311.382660 
	C619.236267,334.715546 619.190369,358.048981 619.318726,381.381256 
	C619.339539,385.168243 618.293335,388.023010 615.538696,390.661804 
	C611.091309,394.922180 606.903564,399.462616 602.744080,404.010925 
	C600.566284,406.392303 598.146851,407.507202 594.854248,407.433319 
	C587.024963,407.257599 579.188599,407.419952 571.356262,407.336731 
	C569.526611,407.317322 566.900696,408.008362 566.880798,404.877045 
	C566.863037,402.084351 567.512390,399.332916 571.119934,399.278473 
	C577.614746,399.180511 584.128113,398.992706 590.601929,399.377594 
	C593.977600,399.578308 596.042236,398.226837 598.553650,396.310577 
	C608.713684,388.558136 611.874573,378.761627 611.167358,365.988251 
	C610.072571,346.216003 610.787476,326.337433 610.966980,306.506012 
	C611.002319,302.597290 609.930054,300.266571 606.086182,299.045563 
	C601.375793,297.549225 597.133850,294.728271 592.256775,293.721588 
	C590.233459,295.672485 590.946228,297.964172 590.938049,300.014740 
	C590.876648,315.347443 590.977051,330.681122 590.852051,346.013062 
	C590.826172,349.192108 591.279297,351.425293 594.188049,353.564941 
	C599.777039,357.676117 600.565002,365.650299 596.598267,370.989807 
	C592.957214,375.890930 585.666809,377.091553 579.904907,373.738983 
	C572.791626,369.600128 571.972534,359.250031 578.802856,353.755432 
	C581.988586,351.192688 582.748535,348.507812 582.721252,344.787964 
	C582.597961,327.955780 582.572144,311.121185 582.741516,294.289764 
	C582.778931,290.570068 581.542725,288.516357 578.085876,287.128601 
	C569.585754,283.716217 561.219116,279.972809 552.774170,276.420929 
	C550.414673,275.428528 548.330017,274.318695 547.224915,271.762970 
	C542.854248,261.655090 537.706055,251.945541 531.991272,242.533127 
	C531.581543,241.858276 531.380554,241.056686 530.975647,240.047623 
	C533.778198,239.043976 535.758301,240.580246 537.748840,241.429230 
	C580.341614,259.595703 622.911255,277.816315 665.485107,296.027313 
	C673.906738,299.629669 682.296692,303.308655 690.763550,306.801422 
	C693.746033,308.031738 695.149658,309.860962 695.275879,313.170044 
	C697.156616,362.497559 692.322754,410.996765 676.496033,457.965546 
	C656.649597,516.863586 622.631165,566.156250 574.989746,606.138916 
	C556.675781,621.508789 536.949768,634.794739 516.807861,647.548340 
	C514.690674,648.888916 512.819824,649.596802 510.395935,648.069824 
	C487.122498,633.408508 463.367584,619.183594 444.570190,598.797729 
	C424.787964,577.343689 416.058929,551.484497 418.551208,522.158691 
	C418.945129,517.523682 419.382263,512.869385 420.210510,508.298462 
	C423.145844,492.098816 434.666168,482.871490 447.976379,475.611206 
	C456.874420,470.757599 466.409393,467.084076 475.565125,462.686371 
	C482.092224,459.551239 488.538177,456.203552 493.587799,450.647308 
	C473.638397,459.977753 451.185913,462.843597 432.702942,475.955780 
	C431.566406,473.032471 433.071899,471.605194 433.779602,470.040588 
	C445.898102,443.247345 464.504242,423.251160 492.745117,412.989563 
	C500.211090,410.276703 507.073883,406.064392 512.721313,400.041748 
	C500.525269,405.500702 487.686096,409.003784 474.472778,413.160400 
	C489.341217,392.437988 502.504486,370.971405 508.353607,345.827179 
	C496.512390,372.055206 479.132416,394.259277 458.913757,414.732483 
	C460.171417,401.573395 458.139618,388.820435 457.721222,374.562286 
	C453.807678,382.956024 453.722015,390.672638 453.451202,398.149658 
	C452.881012,413.891815 449.511627,428.309418 438.839172,440.648926 
	C432.972839,447.431610 428.591522,455.419342 423.979156,463.152893 
	C423.188629,464.478363 422.875153,466.399261 420.258209,466.579834 
	C417.778351,450.411469 412.157898,434.786102 412.494843,418.099518 
	C408.661194,427.407318 408.724945,437.062714 409.827576,446.805695 
	C411.358215,460.330902 414.716064,473.730042 412.406036,487.508270 
	C411.029602,495.718445 408.168427,503.563721 406.932465,511.837646 
	C404.567291,527.670959 404.943604,543.341003 408.193481,558.982056 
	C408.320648,559.594055 408.209717,560.255554 408.209717,560.797791 
	C406.515656,561.795227 405.877228,560.513184 405.217560,559.696350 
	C384.909058,534.551208 372.778320,506.011444 369.652710,473.754333 
	C365.752594,433.503784 382.477570,402.070587 411.259888,375.592529 
	C428.588806,359.650940 447.885376,346.165283 465.823883,330.995087 
	C487.691650,312.502014 505.661377,291.250854 514.335632,263.307556 
	C516.568054,256.115967 517.322144,248.655533 518.580322,241.284241 
	C518.681152,240.693741 519.029297,240.145462 519.302185,239.480957 
	C521.973450,240.475571 522.785828,242.829239 523.896301,244.756653 
	C542.714417,277.417999 556.238647,311.960114 560.049500,349.748596 
	C564.822510,397.077454 555.325500,440.629913 524.310364,477.949402 
	C510.069366,495.085175 492.184753,507.820282 472.661133,518.388245 
	C465.350677,522.345337 457.798431,525.856812 450.960022,530.724854 
	C443.255463,536.209534 439.162170,543.554199 437.665222,552.708252 
	C437.147278,555.875549 438.902954,557.756409 440.684753,559.703552 
	C456.840546,577.358154 474.813660,592.930054 494.521698,606.499695 
	C499.599030,609.995605 504.712860,613.438477 509.805023,616.912903 
	C511.512634,618.078003 513.226318,619.095581 515.559265,617.409485 
M582.949097,361.423767 
	C581.761292,363.943756 582.335693,365.924316 584.867798,367.143890 
	C586.978210,368.160370 588.768555,367.395416 590.045654,365.637085 
	C591.239319,363.993622 591.168945,362.097839 589.769470,360.659882 
	C587.693787,358.527100 585.439331,358.620300 582.949097,361.423767 
M575.155396,536.344788 
	C577.427856,538.325378 579.506653,537.629639 581.077393,535.553101 
	C582.439697,533.752075 582.009460,531.764709 580.387207,530.226929 
	C578.891113,528.808716 577.054504,528.647034 575.447876,529.902100 
	C573.356018,531.536133 572.769287,533.585571 575.155396,536.344788 
M512.645996,581.361755 
	C511.083191,581.686035 509.861084,582.528076 509.415466,584.069092 
	C508.732391,586.431030 509.442963,588.425964 511.809418,589.308105 
	C514.210999,590.203369 516.188477,589.033752 517.019531,586.844910 
	C518.240601,583.628479 516.489929,581.914246 512.645996,581.361755 
M621.534180,463.942505 
	C624.103699,461.920074 624.681091,459.637451 622.068176,457.305206 
	C620.744385,456.123566 618.949768,455.959015 617.415894,456.956146 
	C615.731995,458.050781 614.986511,459.790405 615.727905,461.723145 
	C616.617371,464.041626 618.376038,465.041351 621.534180,463.942505 
M639.733826,346.818451 
	C641.183838,348.939423 643.150452,349.386536 645.407593,348.383301 
	C646.897888,347.720856 647.682861,346.427551 647.594360,344.770782 
	C647.494751,342.906860 646.450134,341.450867 644.697327,341.127808 
	C640.842712,340.417328 639.055725,342.228851 639.733826,346.818451 
z"/>
<path fill="#ffffff" opacity="1.000000" stroke="none" 
	d="
M362.401947,442.403961 
	C359.871918,457.709442 361.017975,472.569244 363.012115,487.509094 
	C360.069366,487.489807 359.879456,485.257721 359.250610,483.766632 
	C350.109558,462.090820 343.391754,439.685059 338.643585,416.634399 
	C333.118652,389.812775 330.587067,362.710815 330.216278,335.382690 
	C330.112488,327.733307 330.672241,320.076904 330.792725,312.421600 
	C330.848175,308.897827 333.109100,307.689301 335.885956,306.511536 
	C364.392151,294.420654 392.870575,282.264252 421.349457,270.109009 
	C449.521027,258.084991 477.683167,246.038925 505.855621,234.016968 
	C506.748077,233.636139 507.708588,233.414673 509.260284,232.920563 
	C510.272461,237.588745 509.542755,242.032867 509.013885,246.270065 
	C507.032898,262.140778 506.858215,262.077911 492.160309,268.321289 
	C449.415436,286.478455 406.733948,304.786438 363.896484,322.722137 
	C358.036011,325.175903 355.989349,328.257996 356.193359,334.596985 
	C357.114899,363.233459 359.204071,391.699677 365.968109,419.645569 
	C366.813446,423.138123 366.770233,426.448608 365.606445,429.916443 
	C364.287476,433.846710 363.480225,437.948700 362.401947,442.403961 
z"/>
<path fill="#ffffff" opacity="1.000000" stroke="none" 
	d="
M551.496399,475.435577 
	C553.657349,473.093201 553.425110,470.864044 552.935242,468.217865 
	C551.938904,462.835571 552.971313,457.855347 558.015076,454.622803 
	C562.569336,451.704010 567.188293,452.004059 571.643188,454.863373 
	C576.093750,457.719849 578.124451,462.947174 576.865173,467.881256 
	C575.484802,473.289825 571.372498,477.266998 565.920410,477.183960 
	C561.449646,477.115814 558.991455,479.156067 556.535767,482.423676 
	C537.878235,507.249847 514.800171,527.148865 488.178467,542.985840 
	C484.296600,545.295105 481.469696,547.458374 480.906982,552.659546 
	C480.161041,559.554626 472.473816,563.755005 465.766907,561.977295 
	C458.904358,560.158386 455.115723,553.415771 456.980133,546.339294 
	C458.745331,539.639404 465.630341,535.251038 472.082062,537.902527 
	C476.740753,539.817078 479.826782,538.528809 483.524658,536.273254 
	C509.823547,520.232483 532.858887,500.572418 551.496399,475.435577 
M472.324097,547.509521 
	C470.587189,545.338135 468.540588,544.986206 466.359528,546.722595 
	C464.851898,547.922974 464.038696,549.506104 465.004547,551.474243 
	C466.026276,553.556335 467.807465,554.267761 469.914093,553.619934 
	C472.586304,552.798157 473.273834,550.759094 472.324097,547.509521 
M563.095154,468.657684 
	C565.656616,469.208679 567.760254,468.678131 568.586243,465.922150 
	C569.118835,464.145447 568.404663,462.610779 566.767212,461.751617 
	C564.750671,460.693542 562.824280,461.166229 561.457825,462.899841 
	C559.840515,464.951752 560.230713,466.873108 563.095154,468.657684 
z"/>
</svg>
