<svg version="1.1" id="Layer_1" xmlns="http://www.w3.org/2000/svg" xmlns:xlink="http://www.w3.org/1999/xlink" x="0px" y="0px"
	 width="100%" viewBox="0 0 1024 1024" enable-background="new 0 0 1024 1024" xml:space="preserve">
<path fill="#000000" opacity="1.000000" stroke="none" 
	d="
M561.799927,616.841614 
	C547.361328,627.934265 532.497559,637.766174 517.292419,647.094360 
	C515.172913,648.394714 513.216614,649.820557 510.452423,648.103455 
	C487.360107,633.758484 464.205322,619.384216 445.247345,599.630005 
	C429.413025,583.130676 421.089569,562.934875 418.476013,540.147461 
	C417.257782,529.525757 418.341736,519.220764 420.031219,508.878754 
	C422.764160,492.149200 434.900940,483.115082 448.291565,475.369293 
	C459.265411,469.021484 471.618744,465.501984 482.590637,459.122131 
	C486.549255,456.820343 490.899475,454.963165 493.517120,450.649200 
	C473.469299,459.613220 451.185852,462.867401 432.841003,475.752563 
	C431.299744,473.623627 432.657288,472.408356 433.231750,471.174042 
	C438.958405,458.868988 446.298370,447.549011 454.874481,437.077515 
	C461.227631,429.320282 469.802307,424.435791 478.637817,419.984741 
	C488.153198,415.191193 498.038635,411.112030 507.034943,405.307373 
	C509.261627,403.870697 511.371460,402.351959 512.770691,399.852081 
	C500.609619,405.656036 487.631592,408.923065 474.534363,413.124481 
	C489.140045,392.561249 502.212769,371.409088 508.025238,346.639313 
	C496.045227,372.349640 479.068420,394.429993 459.199188,414.663208 
	C459.356018,401.575439 458.820007,388.780762 457.705597,374.565918 
	C453.845581,382.811676 453.759735,390.364655 453.439758,397.685059 
	C452.747192,413.530304 449.660126,428.239105 438.812347,440.696289 
	C433.139069,447.211334 428.785980,454.809479 424.508301,462.361847 
	C423.634674,463.904327 423.148987,465.814453 420.470673,466.969635 
	C417.771576,450.876251 412.732086,435.451904 412.413605,419.101044 
	C408.244476,428.188934 408.747437,437.764099 409.845795,447.259857 
	C411.371674,460.451599 414.462646,473.488098 412.452118,486.938416 
	C411.243591,495.023621 408.434052,502.704102 407.136444,510.784424 
	C404.569153,526.770874 404.944397,542.598328 408.115295,558.419739 
	C408.301331,559.347900 408.771637,560.374756 407.616180,561.229187 
	C405.495728,561.177917 404.726959,559.266418 403.678864,557.920898 
	C385.919525,535.121765 374.791290,509.555115 370.415070,480.861145 
	C364.417694,441.537323 377.691376,409.208771 405.000122,381.667603 
	C420.419403,366.117126 438.073792,353.224365 455.194397,339.693909 
	C475.310577,323.795990 493.921692,306.522430 505.983429,283.326294 
	C512.192932,271.384674 516.516541,258.906281 517.797180,245.440689 
	C517.998657,243.322357 518.586731,241.240784 519.011658,239.062363 
	C521.355896,239.552475 522.049316,241.390137 522.915100,242.885910 
	C538.533447,269.868347 550.673218,298.247559 556.872620,328.933167 
	C564.358398,365.986725 562.877563,402.495483 548.673401,437.844849 
	C535.219788,471.326538 511.287720,495.670441 480.578583,513.883789 
	C470.552734,519.830017 459.638245,524.197388 450.222656,531.215881 
	C442.679657,536.838623 438.706787,544.347778 437.783844,553.636169 
	C437.471863,556.776245 439.561310,558.541260 441.326508,560.454468 
	C456.180176,576.553650 472.599365,590.892822 490.412018,603.620667 
	C496.779633,608.170593 503.408997,612.352722 509.834198,616.824402 
	C512.006165,618.335999 513.834839,618.686523 516.146851,617.049072 
	C524.710999,610.983704 533.350891,605.024292 542.003906,599.085754 
	C544.362183,597.467224 544.873352,595.266418 544.847961,592.598328 
	C544.760803,583.432678 544.894653,574.264282 544.746155,565.100098 
	C544.693665,561.861328 545.660706,559.367493 547.977661,557.099854 
	C552.978577,552.205383 557.776611,547.104492 562.717651,542.147766 
	C564.834473,540.024170 565.776367,537.863586 565.390198,534.615723 
	C564.666931,528.533508 567.999146,523.561401 573.281250,521.546997 
	C578.403015,519.593689 584.315979,521.278381 587.603210,525.627502 
	C590.845398,529.916992 590.857910,535.921204 587.694824,540.594543 
	C584.797729,544.874878 580.523682,545.956238 575.840271,545.238342 
	C572.808472,544.773560 570.716003,545.597900 568.841370,547.811035 
	C567.767944,549.078308 566.670166,550.445435 565.298218,551.320801 
	C550.969910,560.463867 552.040344,574.384827 553.653015,588.482361 
	C568.018372,584.337646 625.861572,515.680420 627.758850,500.446198 
	C626.109436,498.900848 624.006897,499.392181 622.079346,499.384979 
	C608.913147,499.335754 595.745728,499.445099 582.580750,499.310577 
	C579.271057,499.276764 576.922852,500.311707 574.880737,502.922119 
	C559.168701,523.006775 541.074829,540.597839 519.883911,554.886475 
	C517.856689,556.253357 517.016907,557.930969 517.129211,560.326111 
	C517.261841,563.154114 517.345276,565.999634 517.182556,568.822144 
	C517.013794,571.748901 517.972595,573.676697 520.443054,575.503357 
	C526.434753,579.933716 527.140320,588.241211 522.356628,593.561096 
	C517.634216,598.812866 509.365143,599.185852 504.466248,594.368103 
	C499.154419,589.144226 499.288452,580.628967 505.253632,575.845337 
	C508.270386,573.426147 509.488403,570.741211 508.876068,567.230957 
	C507.071320,556.885132 510.983704,550.402039 519.943359,544.391541 
	C539.707336,531.132935 556.111267,513.954590 570.511719,495.000763 
	C572.939880,491.804840 575.622803,491.451080 579.113525,491.538391 
	C589.877380,491.807587 589.840576,491.716827 589.801575,481.141479 
	C589.754211,468.308624 589.574219,455.470612 589.879333,442.644989 
	C589.998840,437.621216 587.897705,436.174377 583.397156,436.275299 
	C577.233704,436.413513 571.064819,436.327393 564.898376,436.301849 
	C563.096191,436.294403 561.231812,436.607971 559.564941,435.659119 
	C559.820374,428.947144 560.848938,427.831329 566.905762,427.812134 
	C578.072144,427.776764 589.240479,427.662506 600.404114,427.833221 
	C604.014587,427.888428 606.738647,426.882294 609.253357,424.266418 
	C618.146118,415.015961 627.103943,405.822906 636.248535,396.822937 
	C638.960693,394.153717 639.466858,391.006500 639.462708,387.719025 
	C639.451233,378.559570 639.068481,369.400909 639.018433,360.240936 
	C639.001770,357.202209 636.847961,356.002380 635.039612,354.325531 
	C630.054993,349.703430 629.511414,342.506287 633.645569,337.129913 
	C637.158264,332.561707 644.294556,331.204529 649.473206,334.119843 
	C656.837708,338.265717 657.700562,349.444641 650.721619,354.916626 
	C647.970398,357.073822 647.196350,359.300323 647.236938,362.510925 
	C647.363220,372.509186 647.249268,382.510193 647.303894,392.509735 
	C647.317139,394.938110 646.924133,397.077026 645.139832,398.906921 
	C633.624756,410.715759 622.127380,422.542084 610.679688,434.416138 
	C608.516418,436.660065 605.843567,436.363983 603.217590,436.324829 
	C599.701965,436.272430 598.107971,437.680969 598.137939,441.387360 
	C598.260803,456.552673 598.252625,471.719757 598.173279,486.885529 
	C598.155640,490.252380 599.381775,491.728973 602.850098,491.686157 
	C611.848450,491.575104 620.850220,491.589050 629.848572,491.705292 
	C632.537598,491.740051 634.162659,490.720886 635.369934,488.357239 
	C643.044922,473.330566 649.119568,457.669525 654.177795,441.592865 
	C655.225281,438.263641 654.327881,436.584900 650.633606,436.288727 
	C645.647705,435.889130 641.432129,436.614777 638.808838,441.555878 
	C637.728088,443.591461 636.174377,445.413971 634.641785,447.163452 
	C631.791504,450.417206 630.163818,453.427856 631.791687,458.279785 
	C633.738281,464.081970 629.027954,470.872742 623.359863,472.186737 
	C616.209351,473.844452 609.321167,469.904175 607.753418,463.259460 
	C606.139343,456.417816 609.831665,449.072052 616.824402,448.526184 
	C623.987976,447.966980 627.770630,444.074677 630.588135,438.799988 
	C635.403931,429.783997 642.294434,425.812958 652.453491,427.773773 
	C656.914307,428.634735 658.637390,426.104401 659.566406,422.152405 
	C664.332581,401.877930 667.396484,381.373230 668.864746,360.588928 
	C669.570496,350.598267 669.650879,340.624664 669.725403,330.631500 
	C669.746277,327.831207 669.013733,325.857300 666.269348,324.698792 
	C651.080750,318.287201 635.922607,311.803192 620.744324,305.366974 
	C620.487366,305.258026 620.108459,305.436432 619.745850,305.486359 
	C618.684753,306.980804 619.195801,308.692596 619.194763,310.299744 
	C619.179565,333.799347 619.125549,357.299530 619.295776,380.798004 
	C619.325867,384.955231 618.165894,388.080109 615.163696,390.965942 
	C610.723999,395.233490 606.630127,399.862671 602.423828,404.370361 
	C600.783936,406.127808 599.078674,407.442291 596.437622,407.409821 
	C587.939026,407.305359 579.438354,407.389130 570.938599,407.352844 
	C568.947205,407.344360 566.584106,407.518402 566.948120,404.400574 
	C567.222900,402.046783 567.649658,399.684113 570.917664,399.698547 
	C577.583923,399.727936 584.252686,399.575928 590.915833,399.717407 
	C593.999695,399.782867 596.000183,398.355621 598.382935,396.565308 
	C609.164734,388.463867 611.883911,377.939728 611.179626,364.796021 
	C610.137817,345.352448 610.824463,325.810638 610.993591,306.312561 
	C611.027893,302.361938 609.772888,300.153259 605.961182,298.939850 
	C602.485657,297.833405 599.225098,296.066223 595.831421,294.684448 
	C591.419373,292.888000 590.464355,293.455902 590.419556,298.199158 
	C590.329895,307.698120 590.388794,317.198456 590.385498,326.698242 
	C590.383911,331.364838 590.363525,336.031494 590.382202,340.697998 
	C590.403748,346.079865 589.886780,350.998535 595.554688,355.118591 
	C601.087219,359.140228 599.970459,368.305725 594.835999,372.806030 
	C590.027832,377.020508 581.496155,376.339264 577.197388,371.397675 
	C572.791809,366.333282 573.482605,357.939667 579.078979,353.621155 
	C581.759766,351.552429 582.759583,349.390320 582.734131,346.070343 
	C582.601196,328.738281 582.572998,311.403442 582.766724,294.072449 
	C582.809143,290.281586 581.462036,288.433807 578.017090,287.066345 
	C569.350708,283.626251 560.837708,279.800537 552.252502,276.154755 
	C550.216309,275.290070 548.429016,274.278168 547.451050,272.085785 
	C542.763794,261.578369 537.364624,251.435196 531.614502,241.474457 
	C531.393066,241.090851 531.454590,240.543808 531.350342,239.845932 
	C534.124268,239.337250 536.269104,240.820358 538.469177,241.757355 
	C586.125427,262.054047 633.838684,282.220184 681.362061,302.824036 
	C697.995483,310.035461 694.835205,305.147003 695.374329,323.403717 
	C696.783142,371.103241 690.481750,417.674103 674.748901,462.807495 
	C653.300842,524.336609 615.829773,574.313293 564.797729,614.422546 
	C563.882080,615.142273 562.984131,615.884399 561.799927,616.841614 
M582.435425,364.224213 
	C583.104248,366.673553 584.843506,367.735565 587.222595,367.468842 
	C588.953857,367.274719 590.277283,366.137360 590.647156,364.360413 
	C591.150146,361.943817 590.262878,360.006195 587.789246,359.429321 
	C584.560425,358.676361 582.846619,360.362396 582.435425,364.224213 
M639.523132,343.174744 
	C639.480652,347.864685 641.663452,350.177338 644.905945,348.843414 
	C646.574707,348.156921 647.538452,346.890778 647.590393,345.048370 
	C647.636536,343.412537 646.833008,342.227936 645.472656,341.390839 
	C643.236450,340.014679 641.403931,340.634430 639.523132,343.174744 
M517.394409,586.135620 
	C517.651245,583.586975 516.402039,581.986206 514.035706,581.450134 
	C511.868011,580.959045 510.145630,581.895630 509.203278,583.946655 
	C508.187347,586.157715 509.112946,587.874512 511.010254,588.949768 
	C513.757324,590.506592 515.686218,589.182556 517.394409,586.135620 
M581.578003,534.899170 
	C582.384338,532.489136 581.517578,530.687012 579.477905,529.391296 
	C578.054199,528.486816 576.597290,528.646973 575.356079,529.748169 
	C573.593140,531.312378 572.545105,533.233887 574.213135,535.376282 
	C576.375000,538.152832 578.831299,538.328552 581.578003,534.899170 
M622.618591,457.827057 
	C620.612610,456.091492 618.470276,455.585144 616.503845,457.699036 
	C615.157715,459.146210 614.907837,460.995728 616.185730,462.697205 
	C617.380981,464.288574 619.009949,465.170563 620.931091,464.128387 
	C623.203491,462.895630 624.428955,461.084045 622.618591,457.827057 
z"/>
<path fill="#000000" opacity="1.000000" stroke="none" 
	d="
M369.334778,292.245605 
	C416.054382,272.340088 462.430939,252.601089 509.555908,232.543533 
	C509.706604,242.828995 508.749695,252.096039 505.794586,261.108093 
	C505.172546,263.005035 503.281738,263.662750 501.583130,264.384521 
	C459.123322,282.426514 416.663361,300.468292 374.205231,318.514282 
	C369.912903,320.338684 365.707947,322.403473 361.322510,323.963257 
	C357.642853,325.272003 356.216980,327.361420 356.233093,331.356110 
	C356.352539,361.047058 359.156982,390.427124 365.904175,419.376953 
	C366.717621,422.867126 366.817749,426.151398 365.658325,429.644348 
	C360.252258,445.930908 359.961792,462.608154 362.224884,479.448822 
	C362.608673,482.304901 362.832428,485.182495 363.144165,488.185608 
	C360.260010,488.004486 360.170044,485.757050 359.541229,484.253357 
	C350.273590,462.091278 343.339203,439.252502 338.510773,415.678497 
	C331.723145,382.538879 329.861908,349.110443 330.635559,315.410675 
	C330.745087,310.640106 332.036835,307.911987 336.805664,306.077667 
	C347.677917,301.895721 358.279907,297.011169 369.334778,292.245605 
z"/>
<path fill="#000000" opacity="1.000000" stroke="none" 
	d="
M808.904419,678.686707 
	C834.840393,679.078247 849.719238,697.478149 844.248657,721.795715 
	C841.055725,735.989258 828.307861,745.682373 811.612061,746.196655 
	C801.959839,746.494019 792.290222,746.177490 782.630798,746.313049 
	C779.170105,746.361572 777.882202,744.939453 777.893799,741.575195 
	C777.960449,722.253113 777.971985,702.930481 777.901917,683.608398 
	C777.888855,680.012207 779.232361,678.564941 782.934692,678.644165 
	C791.425903,678.825806 799.923950,678.691956 808.904419,678.686707 
M804.503357,731.916748 
	C806.329224,731.891174 808.156921,731.909302 809.980652,731.832764 
	C820.756958,731.380615 827.883301,724.912292 828.650208,714.914795 
	C829.558716,703.071777 823.583191,695.128418 812.431152,693.024475 
	C808.130127,692.213013 803.826172,692.601868 799.531494,692.333618 
	C795.692505,692.093872 794.190796,693.532349 794.294250,697.488586 
	C794.515442,705.950073 794.317139,714.421631 794.380920,722.888367 
	C794.452454,732.389771 792.924988,731.884705 804.503357,731.916748 
z"/>
<path fill="#000000" opacity="1.000000" stroke="none" 
	d="
M717.992676,746.271484 
	C709.647461,746.236633 709.646118,746.236633 709.646912,738.332458 
	C709.648682,720.355652 709.759888,702.377808 709.575134,684.402893 
	C709.531494,680.152100 710.667419,678.357727 715.182739,678.620239 
	C726.288757,679.265808 737.493286,677.545410 748.535400,679.746521 
	C758.002075,681.633484 764.831787,687.023560 766.832397,696.626160 
	C768.873779,706.424744 767.381165,715.721008 758.307678,721.922180 
	C755.300720,723.977234 755.868347,725.637634 757.502441,728.001892 
	C761.345337,733.562012 765.082581,739.195190 768.931702,744.901428 
	C759.671997,748.689575 751.780090,746.440674 746.724304,739.032227 
	C744.754333,736.145569 742.705872,733.309509 740.825134,730.366028 
	C739.553040,728.375122 737.991882,727.430176 735.536438,727.319763 
	C726.193726,726.899902 726.197266,726.819031 726.225342,736.214661 
	C726.227844,737.046936 726.234375,737.879150 726.236145,738.711426 
	C726.252441,746.258545 726.252258,746.258545 717.992676,746.271484 
M746.748657,711.393555 
	C750.836792,708.486816 751.566895,704.354065 750.493713,699.892700 
	C749.433289,695.483948 745.938049,693.697449 741.772644,692.830383 
	C737.657104,691.973511 733.519836,692.483032 729.392456,692.390564 
	C727.021545,692.337402 726.236755,693.705933 726.251953,695.872986 
	C726.285583,700.677063 726.271301,705.481506 726.261719,710.285828 
	C726.257935,712.170105 726.833008,713.655884 729.006165,713.605408 
	C734.745422,713.472229 740.640137,714.688354 746.748657,711.393555 
z"/>
<path fill="#000000" opacity="1.000000" stroke="none" 
	d="
M374.059570,683.793335 
	C390.799377,697.257935 393.642487,718.341431 381.179230,734.507080 
	C371.497101,747.065430 351.939026,751.155518 336.199005,743.913513 
	C321.513489,737.156799 313.924957,720.885010 317.690521,704.226624 
	C321.291229,688.297485 334.940887,677.775146 351.934753,677.662170 
	C359.795349,677.609863 367.102905,679.326233 374.059570,683.793335 
M333.255951,714.233215 
	C334.058929,723.221985 339.124023,729.935486 346.793549,732.176514 
	C354.579651,734.451599 363.369446,731.609253 368.315247,725.217041 
	C373.328613,718.737427 373.772644,708.472351 369.353088,701.222229 
	C364.820129,693.785950 355.565460,690.225647 347.157623,692.683594 
	C338.341797,695.260864 333.362061,702.647888 333.255951,714.233215 
z"/>
<path fill="#000000" opacity="1.000000" stroke="none" 
	d="
M252.614960,693.045410 
	C252.615738,691.056396 252.618088,689.558533 252.616379,688.060730 
	C252.605743,678.712097 252.608353,678.560242 262.232117,678.744812 
	C271.358765,678.919739 280.526886,677.811157 289.610840,679.537781 
	C299.406982,681.399719 306.602142,686.449585 309.050507,696.490906 
	C311.655975,707.176514 308.950653,716.233276 299.558990,722.729736 
	C299.028778,723.096558 298.572235,723.570007 297.854156,724.189941 
	C301.334473,731.728271 307.543060,737.551208 311.440826,745.642822 
	C305.671967,746.789490 300.596100,746.363708 295.556335,746.068420 
	C293.728638,745.961426 292.895203,744.196716 291.969299,742.839233 
	C289.344666,738.991150 286.788208,735.096741 284.188171,731.231812 
	C281.882751,727.804810 273.394196,725.770691 269.891083,727.745789 
	C268.271210,728.658997 268.367004,730.192688 268.347229,731.671204 
	C268.298218,735.331909 268.264557,738.993896 268.305176,742.654358 
	C268.332733,745.138306 267.225769,746.094177 264.723358,746.329407 
	C252.641403,747.465454 252.637589,747.527954 252.625748,735.475403 
	C252.612015,721.495850 252.617508,707.516235 252.614960,693.045410 
M277.411011,692.326660 
	C276.078003,692.325562 274.730530,692.450500 273.414703,692.299622 
	C269.480743,691.848267 268.009583,693.508667 268.256042,697.438843 
	C268.516235,701.588196 268.312958,705.766418 268.321838,709.932007 
	C268.325531,711.676758 268.456970,713.529358 270.748199,713.552551 
	C276.211700,713.607788 281.747620,714.446594 287.059937,712.342468 
	C291.434418,710.609863 293.671753,707.361206 293.603180,702.708130 
	C293.534302,698.036865 291.171051,694.916504 286.705566,693.365051 
	C283.972748,692.415710 281.178009,692.236755 277.411011,692.326660 
z"/>
<path fill="#000000" opacity="1.000000" stroke="none" 
	d="
M525.920166,677.683472 
	C534.646179,677.766418 542.125793,680.267517 548.716858,685.179932 
	C553.059082,688.416138 553.049988,689.611023 549.397461,693.406494 
	C548.589355,694.246155 547.672058,694.992554 546.939941,695.891663 
	C544.252075,699.192444 541.905457,699.479309 538.243896,696.573303 
	C529.609802,689.720703 516.634827,690.852112 509.537140,698.463623 
	C502.765808,705.725220 502.539337,717.396179 509.012115,725.521729 
	C514.598572,732.534607 526.252747,734.999023 534.063782,730.953369 
	C536.231018,729.830811 536.671753,728.126709 536.577454,726.007629 
	C536.429626,722.682861 536.303345,719.356812 536.120605,716.033875 
	C535.920044,712.385864 537.165710,710.548096 541.260986,710.676514 
	C552.811523,711.038696 552.010498,709.158264 552.084229,721.382996 
	C552.109314,725.545959 551.950745,729.718323 552.183655,733.869202 
	C552.385803,737.472107 551.092285,739.785645 547.853394,741.476746 
	C535.584106,747.883240 522.845276,749.449280 509.727844,744.901733 
	C494.379150,739.580505 485.241425,723.405457 487.858582,706.984375 
	C490.509644,690.350586 504.126862,678.295532 520.950745,677.704224 
	C522.447754,677.651611 523.947998,677.687500 525.920166,677.683472 
z"/>
<path fill="#000000" opacity="1.000000" stroke="none" 
	d="
M646.716858,701.800598 
	C649.540039,695.360840 652.332153,689.319458 654.864746,683.171204 
	C656.161560,680.023010 657.959717,678.497681 661.584900,678.629944 
	C676.490479,679.173767 672.847168,676.003113 679.244629,690.047791 
	C686.895935,706.845154 694.520447,723.654663 702.154175,740.460022 
	C702.896423,742.094177 703.963867,743.655945 703.403015,745.876282 
	C698.624390,746.737305 693.812988,746.273438 689.033569,746.210815 
	C686.054810,746.171814 685.158386,743.475708 684.708923,741.387329 
	C682.993713,733.418335 678.089172,731.336731 670.530212,732.247986 
	C665.446899,732.860779 660.219910,732.537598 655.074036,732.287292 
	C651.542847,732.115540 649.650574,733.448242 648.288452,736.699097 
	C644.171448,746.524292 644.060425,746.486389 633.281799,746.292358 
	C631.639343,746.262817 629.936951,746.513794 627.700073,745.105164 
	C633.185791,730.545898 640.583191,716.643555 646.716858,701.800598 
M673.996948,716.887573 
	C671.750916,710.394043 669.118347,704.081909 665.349976,696.705688 
	C662.003296,704.707886 659.246460,711.299622 656.124573,718.764404 
	C662.834290,718.218750 668.520081,720.267029 673.996948,716.887573 
z"/>
<path fill="#000000" opacity="1.000000" stroke="none" 
	d="
M562.943115,696.002075 
	C562.946106,691.836975 562.932678,688.171387 562.956726,684.506042 
	C562.964417,683.343079 562.626282,681.845886 563.206909,681.072754 
	C566.833069,676.244385 572.049255,679.567139 576.499512,678.797791 
	C579.444336,678.288696 580.042908,680.590027 580.044312,682.988586 
	C580.049377,691.319153 580.025879,699.649719 580.051270,707.980225 
	C580.063416,711.977539 580.031799,715.981506 580.247314,719.970215 
	C580.653931,727.497314 585.196167,732.159363 592.378723,732.652283 
	C600.284180,733.194763 605.224121,729.639893 606.839905,722.060059 
	C607.321411,719.801147 607.598267,717.457336 607.620972,715.148987 
	C607.709473,706.152649 607.539368,697.152527 607.725464,688.159180 
	C607.787903,685.143250 606.021973,680.852783 609.093384,679.365967 
	C612.886902,677.529846 617.606750,678.521240 621.899963,678.958801 
	C624.033997,679.176208 624.075806,681.271912 624.045715,682.922546 
	C623.799744,696.401794 624.989380,709.915039 623.366821,723.358154 
	C621.695679,737.204224 612.051880,746.305786 598.118774,747.225647 
	C594.482239,747.465637 590.727234,747.547302 587.160522,746.929016 
	C571.246155,744.170349 563.544434,734.537354 563.046387,716.994446 
	C562.852600,710.168030 562.967102,703.332825 562.943115,696.002075 
z"/>
<path fill="#000000" opacity="1.000000" stroke="none" 
	d="
M423.954529,678.690674 
	C429.805359,678.436768 435.078918,678.970825 440.172302,680.687988 
	C449.707275,683.902588 455.241425,691.672791 455.337280,701.816162 
	C455.453400,714.105042 450.781189,721.455505 440.608398,725.216675 
	C434.533447,727.462891 428.244537,727.436340 421.913513,727.370605 
	C414.352356,727.292114 414.351746,727.351990 414.347809,735.102173 
	C414.347717,735.268494 414.351257,735.434875 414.348602,735.601135 
	C414.157898,747.556580 416.311157,746.133972 403.337799,746.344177 
	C399.461975,746.406982 398.598022,744.690552 398.618866,741.217346 
	C398.726776,723.255066 398.614166,705.291565 398.681915,687.328857 
	C398.717468,677.899048 396.856018,678.767395 407.495483,678.701111 
	C412.817688,678.667969 418.140198,678.691772 423.954529,678.690674 
M422.511292,713.676819 
	C426.186432,713.823608 429.833496,713.683716 433.290192,712.254944 
	C437.017517,710.714233 439.259430,707.828247 439.373871,703.869385 
	C439.488342,699.909302 438.239624,696.191101 434.398041,694.210815 
	C428.460815,691.150269 421.653442,691.091797 416.002777,693.181335 
	C412.051514,694.642395 415.072479,700.724976 414.361237,704.667664 
	C414.245148,705.311279 414.347229,705.994324 414.348267,706.659119 
	C414.359100,713.612366 414.359070,713.612366 422.511292,713.676819 
z"/>
<path fill="#000000" opacity="1.000000" stroke="none" 
	d="
M195.187088,684.067139 
	C210.017288,674.852600 228.656998,675.677673 240.316071,685.574646 
	C243.662094,688.415100 244.164139,690.670593 240.489914,693.417053 
	C239.297546,694.308350 238.190857,695.362244 237.219925,696.492065 
	C234.931519,699.154968 233.053650,699.241821 230.178284,696.798767 
	C221.742676,689.631592 209.415207,690.526306 202.265976,698.415405 
	C195.447144,705.939941 195.566040,719.456055 202.515671,726.799805 
	C209.828476,734.527222 222.095825,735.151611 230.448837,727.754822 
	C233.348663,725.187073 234.928040,725.765930 237.459976,727.980408 
	C245.622253,735.119507 245.561966,736.527344 236.066620,742.401245 
	C220.527359,752.013916 197.522949,747.572876 187.202133,732.967834 
	C176.391144,717.669067 179.725800,696.546875 195.187088,684.067139 
z"/>
<path fill="#000000" opacity="1.000000" stroke="none" 
	d="
M537.367126,492.380096 
	C540.844177,488.315948 544.073730,484.504974 547.339661,480.725494 
	C551.171265,476.291656 554.134338,472.097900 552.937561,465.267334 
	C551.685852,458.123749 557.518494,452.773773 564.563782,452.654388 
	C571.338196,452.539612 577.064270,458.044678 577.250793,464.851715 
	C577.432922,471.498718 572.447937,477.042572 565.515076,477.250671 
	C562.030701,477.355286 559.630005,478.353027 557.515381,481.195282 
	C538.356323,506.946136 514.476746,527.411438 486.941376,543.721436 
	C483.965942,545.483887 481.739258,547.395630 481.230927,551.271057 
	C480.242126,558.810120 473.582550,563.485962 466.610352,562.069702 
	C459.404236,560.606018 455.203644,553.883179 456.926697,546.571350 
	C458.549225,539.686096 465.895752,535.416199 472.981293,538.145020 
	C476.890594,539.650574 479.470734,538.728638 482.599792,536.823547 
	C502.769714,524.543213 521.329041,510.301453 537.367126,492.380096 
M468.643646,545.593750 
	C466.117554,546.264282 464.419861,547.728027 464.716949,550.509644 
	C464.882599,552.060974 465.979095,553.215271 467.576263,553.650330 
	C469.583496,554.197144 471.347168,553.553711 472.350281,551.845581 
	C474.366852,548.411621 472.515717,546.615479 468.643646,545.593750 
M562.582642,461.889099 
	C560.654419,463.336578 559.636658,465.097870 561.269226,467.306610 
	C562.560608,469.053802 564.361938,469.751801 566.445129,468.625305 
	C568.192505,467.680420 569.218018,466.186768 568.608765,464.170258 
	C567.794128,461.473724 565.845886,460.716492 562.582642,461.889099 
z"/>
<path fill="#000000" opacity="1.000000" stroke="none" 
	d="
M670.594360,793.054626 
	C668.556030,790.876526 666.956726,788.771790 665.222046,786.785461 
	C664.169556,785.580200 662.714844,785.143982 661.138245,785.630432 
	C659.544678,786.122192 659.391357,787.522644 659.416809,788.870850 
	C659.466431,791.499512 659.000977,793.408875 655.646484,793.304688 
	C652.272583,793.199707 652.024780,791.072876 652.034180,788.577820 
	C652.057312,782.439087 652.203186,776.297729 652.065552,770.162598 
	C651.973022,766.034790 653.773865,764.512024 657.786682,764.763611 
	C661.585266,765.001892 665.413818,764.553101 669.165039,765.656128 
	C675.993286,767.664001 679.306946,774.674927 675.293274,780.499634 
	C672.795227,784.124939 672.918884,786.545288 675.509277,789.555054 
	C676.111267,790.254456 676.327698,791.285828 676.803345,792.346924 
	C674.865662,793.837097 672.868774,793.191650 670.594360,793.054626 
M669.158264,776.793823 
	C669.807678,775.472961 669.659851,774.204224 668.703552,773.129944 
	C666.505920,770.661011 663.513367,770.687256 661.010620,771.853943 
	C658.491455,773.028259 658.991943,776.027161 659.836426,778.016785 
	C661.019714,780.804626 663.743835,779.642517 665.872864,779.161926 
	C666.913025,778.927124 667.798157,778.005188 669.158264,776.793823 
z"/>
<path fill="#000000" opacity="1.000000" stroke="none" 
	d="
M359.693329,789.397217 
	C358.239655,787.369019 357.315979,785.097717 354.584198,785.568420 
	C351.707397,786.064148 352.414886,788.523926 352.260925,790.373291 
	C352.055939,792.835693 350.544556,793.301636 348.492218,793.295166 
	C346.401398,793.288513 344.829376,792.671997 344.821381,790.268738 
	C344.796570,782.783447 344.794891,775.297729 344.850677,767.812683 
	C344.865967,765.756714 346.220551,764.859497 348.130829,764.863342 
	C352.276581,764.871643 356.439270,764.353821 360.558380,765.306091 
	C369.623352,767.401550 372.329926,775.558044 366.283997,782.614563 
	C365.860352,783.109070 365.451538,783.616272 365.056000,784.093140 
	C365.577545,787.387024 369.100555,789.099976 369.187317,792.721741 
	C365.253235,794.065674 362.038910,793.652771 359.693329,789.397217 
M352.333679,777.046082 
	C353.443939,781.216309 356.384094,779.467285 358.767548,778.886292 
	C360.970642,778.349365 362.203644,776.743286 361.609558,774.378113 
	C360.878113,771.466431 358.468811,771.446411 356.046265,771.321838 
	C352.236725,771.125977 352.203766,773.595459 352.333679,777.046082 
z"/>
<path fill="#000000" opacity="1.000000" stroke="none" 
	d="
M514.639160,792.478638 
	C509.759033,794.289795 507.590912,792.666443 508.090210,787.853699 
	C508.541840,783.500549 506.700745,782.110535 502.358490,782.099426 
	C497.967926,782.088196 496.918915,783.920105 497.172028,787.789246 
	C497.339233,790.345032 497.832672,793.409851 493.549622,793.316467 
	C491.191101,793.265015 489.709686,792.585510 489.717224,789.945251 
	C489.738037,782.634766 489.724640,775.324097 489.715057,768.013550 
	C489.712006,765.662109 491.009216,764.809937 493.198547,764.823669 
	C495.214447,764.836243 496.869568,765.268494 497.114624,767.657593 
	C497.199158,768.481873 497.286224,769.326050 497.203064,770.143982 
	C496.812317,773.987305 497.957520,775.841370 502.368347,775.823730 
	C506.714417,775.806335 508.471161,774.477173 508.085754,770.087769 
	C507.841217,767.303101 508.214508,764.644714 512.180359,764.803406 
	C516.213440,764.964905 515.386414,767.948792 515.355652,770.245789 
	C515.257690,777.540649 515.854858,784.850891 514.639160,792.478638 
z"/>
<path fill="#000000" opacity="1.000000" stroke="none" 
	d="
M561.847168,785.895630 
	C561.829590,780.076660 561.910278,774.742554 561.757507,769.415283 
	C561.658447,765.960205 563.133545,764.605652 566.529297,764.729736 
	C570.689026,764.881836 574.858093,764.777222 579.023132,764.784729 
	C581.356567,764.788879 583.393066,765.032288 583.301331,768.212952 
	C583.217224,771.129272 581.296631,771.239746 579.185791,771.261536 
	C576.687744,771.287354 574.188660,771.294617 571.692322,771.377625 
	C570.345581,771.422424 569.486511,772.164062 569.475220,773.560059 
	C569.463562,774.992981 570.390015,775.650696 571.713135,775.712585 
	C573.875183,775.813843 576.040833,775.840332 578.205261,775.887573 
	C580.209473,775.931335 581.905273,776.388855 582.008728,778.841125 
	C582.126282,781.628662 580.249817,782.095215 578.059692,782.139221 
	C576.061035,782.179443 574.061279,782.171143 572.063354,782.231506 
	C570.567017,782.276672 569.433105,782.847534 569.458435,784.568298 
	C569.483459,786.268494 570.647156,786.872314 572.113281,786.915161 
	C574.609924,786.988037 577.111206,786.900635 579.607849,786.972595 
	C581.772705,787.034912 584.147705,786.877136 584.224731,790.107361 
	C584.302917,793.384583 581.985168,793.285706 579.771423,793.302856 
	C576.106384,793.331360 572.440979,793.330322 568.775757,793.322449 
	C561.956238,793.307922 561.956238,793.302124 561.847168,785.895630 
z"/>
<path fill="#000000" opacity="1.000000" stroke="none" 
	d="
M448.757446,764.777039 
	C451.809692,764.706360 453.427032,765.648010 453.186951,768.542419 
	C452.946350,771.443359 450.770355,771.237732 448.767975,771.270569 
	C446.773041,771.303284 444.776520,771.262695 442.782318,771.314941 
	C441.267853,771.354614 439.574921,771.366760 439.477936,773.454285 
	C439.379242,775.578613 441.036713,775.691956 442.576172,775.776001 
	C443.737793,775.839478 444.908722,775.777466 446.064972,775.884766 
	C448.237213,776.086487 451.171082,775.240051 451.231445,778.878662 
	C451.297516,782.860352 448.120605,781.928772 445.810364,782.157043 
	C444.490845,782.287354 443.151276,782.200073 441.823944,782.270630 
	C440.552734,782.338135 439.539185,782.808289 439.426178,784.272400 
	C439.298004,785.932556 440.217804,786.796753 441.758575,786.866272 
	C444.579987,786.993652 447.408295,786.958313 450.232422,787.038574 
	C452.510193,787.103271 454.154449,787.938354 453.987976,790.586670 
	C453.828766,793.120544 451.981628,793.298584 450.049469,793.299133 
	C445.227051,793.300415 440.403931,793.245117 435.582520,793.313477 
	C432.837921,793.352356 431.683136,792.099304 431.698944,789.402283 
	C431.738983,782.584717 431.760529,775.765564 431.650909,768.949280 
	C431.602814,765.959351 432.892120,764.721436 435.816162,764.770386 
	C439.972168,764.840027 444.130432,764.777161 448.757446,764.777039 
z"/>
<path fill="#000000" opacity="1.000000" stroke="none" 
	d="
M335.742981,791.710327 
	C331.482147,793.529968 327.530548,794.401245 323.265594,793.473267 
	C317.313171,792.177917 312.715759,787.893372 311.768768,782.480225 
	C310.572083,775.639832 313.141266,769.533936 318.447632,766.607056 
	C323.829834,763.638245 332.441925,763.989014 336.454865,767.333740 
	C337.504730,768.208801 338.656860,769.140747 337.712738,770.641785 
	C336.706085,772.242188 335.310455,773.510498 333.199036,772.939331 
	C331.931152,772.596191 330.784576,771.789490 329.513275,771.476562 
	C324.463104,770.233704 320.033569,772.849487 319.227325,777.442993 
	C318.326111,782.577271 320.964447,786.646118 325.910248,787.267029 
	C328.919708,787.644714 331.717957,787.270935 331.314270,782.962952 
	C331.078796,780.450256 331.537415,778.227173 334.832886,778.174805 
	C338.244019,778.120667 338.531464,780.428833 338.267456,782.905457 
	C337.953278,785.852783 339.719025,789.370911 335.742981,791.710327 
z"/>
<path fill="#000000" opacity="1.000000" stroke="none" 
	d="
M307.293701,786.886719 
	C307.983368,788.949585 309.305786,790.435486 308.812927,792.668274 
	C305.496552,793.704834 302.706177,794.043274 300.629700,790.040833 
	C298.615051,786.157471 289.418152,786.143127 286.836517,789.723511 
	C283.846771,793.869934 283.846710,793.869873 278.274689,792.359802 
	C281.463257,783.423157 285.372223,774.835754 289.731506,766.493652 
	C291.447876,763.209106 296.760345,764.163452 298.596405,767.928650 
	C301.586243,774.059875 304.323822,780.314087 307.293701,786.886719 
M292.219757,781.552673 
	C293.621368,781.502014 295.210480,782.064270 296.199982,780.242859 
	C295.834259,778.197388 295.306122,776.159851 293.214233,774.117859 
	C292.813995,777.047546 290.013336,778.649536 292.219757,781.552673 
z"/>
<path fill="#000000" opacity="1.000000" stroke="none" 
	d="
M619.687256,774.987305 
	C619.693665,772.504578 619.747620,770.505127 619.695190,768.508423 
	C619.630554,766.047546 620.682251,764.841187 623.227539,764.778015 
	C625.900818,764.711670 627.300598,765.719604 627.275940,768.525085 
	C627.239441,772.687561 627.338379,776.851318 627.302246,781.013794 
	C627.271973,784.513000 628.779663,787.038208 632.307556,787.317261 
	C636.131042,787.619629 638.175232,784.980957 638.481262,781.493591 
	C638.843933,777.360596 638.674377,773.175659 638.632751,769.014282 
	C638.607605,766.506287 639.184937,764.774719 642.202820,764.873474 
	C644.989136,764.964600 645.381104,766.687927 645.359619,768.916199 
	C645.317871,773.245483 645.402649,777.576538 645.325012,781.904846 
	C645.193604,789.226135 641.053223,793.379089 633.440002,793.945679 
	C626.207581,794.484070 620.655823,790.088806 619.822449,782.958435 
	C619.534058,780.491333 619.718811,777.968872 619.687256,774.987305 
z"/>
<path fill="#000000" opacity="1.000000" stroke="none" 
	d="
M548.175049,793.424133 
	C543.716980,794.242126 539.848022,793.597778 536.143433,791.866516 
	C534.121399,790.921448 533.633057,789.521118 534.639221,787.405396 
	C535.603455,785.377991 536.963440,785.309692 538.718323,786.044617 
	C542.376953,787.576782 546.037659,789.144531 549.605347,785.794495 
	C548.644836,782.899536 546.347717,782.797363 544.301331,782.280334 
	C541.887207,781.670349 539.382263,781.245544 537.305725,779.765625 
	C532.782410,776.541687 533.357849,769.022644 538.474976,766.358521 
	C543.133240,763.933289 548.073120,764.005188 552.992981,765.724182 
	C554.724792,766.329224 556.007263,767.285461 555.264465,769.413025 
	C554.590027,771.344482 553.568542,772.435791 551.167969,771.855347 
	C548.083618,771.109375 544.772888,769.720276 541.726440,772.953735 
	C544.085876,776.847046 548.351257,776.405334 551.696106,777.682922 
	C554.832764,778.880859 556.788208,780.947449 557.124939,784.173828 
	C557.459717,787.380432 556.146057,790.092773 553.224121,791.674561 
	C551.789673,792.451050 550.132324,792.815918 548.175049,793.424133 
z"/>
<path fill="#000000" opacity="1.000000" stroke="none" 
	d="
M475.228973,771.467651 
	C468.781158,771.266418 465.967621,773.146423 465.339996,777.755920 
	C464.743530,782.136536 467.080780,785.812317 471.118622,787.054749 
	C473.783783,787.874695 476.123901,787.046692 478.183685,785.591797 
	C480.798615,783.744873 482.304810,785.344360 483.523193,787.163452 
	C485.022247,789.401550 483.033051,790.433899 481.511139,791.422607 
	C475.346649,795.427734 466.609161,794.494385 461.754150,789.350647 
	C456.784729,784.085876 456.278534,775.663574 460.594788,770.062744 
	C464.827087,764.570862 474.081665,762.832581 480.619690,766.419678 
	C482.254944,767.316833 484.850983,768.141235 483.639709,770.718201 
	C482.410736,773.333069 480.137207,774.153076 477.429779,772.345520 
	C476.884674,771.981628 476.217682,771.800293 475.228973,771.467651 
z"/>
<path fill="#000000" opacity="1.000000" stroke="none" 
	d="
M598.819153,765.149658 
	C603.759583,764.272217 608.191406,764.382019 612.176514,767.044006 
	C613.514038,767.937500 615.381897,768.982971 614.056702,770.949463 
	C612.973267,772.557312 611.465576,774.160461 609.061096,772.935059 
	C608.321472,772.558105 607.624390,772.031982 606.841248,771.817139 
	C603.033325,770.772461 599.500916,771.126892 597.017334,774.578125 
	C594.523438,778.043579 595.068420,781.573486 597.713867,784.642090 
	C600.452576,787.818848 604.151245,788.560730 607.567200,786.220703 
	C611.151794,783.765198 612.910645,785.380371 614.743347,788.074829 
	C611.718201,793.034485 606.258057,794.887329 599.559875,793.334839 
	C592.995728,791.813477 588.610352,786.750000 587.997375,779.984314 
	C587.428345,773.703918 591.320190,768.217834 598.819153,765.149658 
z"/>
<path fill="#000000" opacity="1.000000" stroke="none" 
	d="
M721.629456,764.989380 
	C725.452698,764.201538 727.654663,765.646240 729.293457,768.676941 
	C730.521179,770.947449 731.418945,773.560608 733.841187,775.079163 
	C738.568726,772.277832 737.926453,762.203613 747.253296,765.425476 
	C746.660339,769.707703 743.758179,772.649658 741.814392,776.011536 
	C739.307312,780.347839 736.447449,784.437683 737.234558,789.870605 
	C737.553162,792.069580 736.412598,793.270752 734.060364,793.287720 
	C731.851013,793.303650 729.648438,792.930115 729.927124,790.249878 
	C730.770203,782.142456 725.435425,776.611084 722.083130,770.226257 
	C721.270996,768.679565 719.016113,767.190735 721.629456,764.989380 
z"/>
<path fill="#000000" opacity="1.000000" stroke="none" 
	d="
M411.620544,781.221436 
	C411.609955,779.101501 411.519867,777.438782 411.608948,775.785767 
	C411.772705,772.745911 410.750549,771.062073 407.360626,771.305969 
	C405.171448,771.463440 402.873688,771.394958 402.829926,768.185242 
	C402.782288,764.692444 405.240845,764.756226 407.629639,764.752563 
	C412.936279,764.744385 418.243073,764.791138 423.549652,764.777893 
	C425.915588,764.771973 427.294312,765.614929 427.289001,768.249390 
	C427.283905,770.768555 425.801453,771.426086 423.753510,771.288452 
	C419.788788,771.022095 419.048035,773.313660 419.122437,776.596680 
	C419.220123,780.905762 419.093262,785.219482 419.126678,789.530701 
	C419.147827,792.261963 417.877960,793.370911 415.157410,793.334167 
	C412.564453,793.299072 411.618408,792.069763 411.658051,789.642761 
	C411.701385,786.990417 411.638458,784.336426 411.620544,781.221436 
z"/>
<path fill="#000000" opacity="1.000000" stroke="none" 
	d="
M702.937500,783.953369 
	C702.928467,781.468994 702.816711,779.465576 702.937012,777.476196 
	C703.162537,773.746948 702.761963,770.732666 697.794678,771.241882 
	C695.818176,771.444519 694.755432,770.355530 694.693115,768.256287 
	C694.624084,765.928772 695.730347,764.854553 697.957520,764.844421 
	C703.947937,764.817200 709.938538,764.812012 715.929077,764.821228 
	C718.234375,764.824829 719.170105,766.114136 719.151733,768.322144 
	C719.133789,770.482605 717.854431,771.427734 715.959473,771.223145 
	C710.513245,770.635193 710.061035,773.855042 710.302856,778.028076 
	C710.514465,781.677185 710.325439,785.348450 710.360596,789.009460 
	C710.383484,791.393921 710.055176,793.254395 706.942505,793.304199 
	C703.754333,793.355042 702.900879,791.666565 702.952881,788.934021 
	C702.981323,787.436890 702.946045,785.938538 702.937500,783.953369 
z"/>
<path fill="#000000" opacity="1.000000" stroke="none" 
	d="
M382.395813,779.920288 
	C382.465668,783.561951 382.527252,786.718201 382.610535,789.873840 
	C382.668854,792.085205 381.756042,793.271729 379.403168,793.318115 
	C377.179016,793.362000 375.237640,793.006287 375.201813,790.316467 
	C375.102234,782.841370 375.078552,775.363708 375.159760,767.888550 
	C375.188232,765.269531 377.067413,764.724548 379.334747,764.811768 
	C381.770966,764.905457 382.382477,766.391052 382.380981,768.465393 
	C382.378357,772.121826 382.390747,775.778198 382.395813,779.920288 
z"/>
<path fill="#000000" opacity="1.000000" stroke="none" 
	d="
M682.671814,776.026978 
	C682.676514,773.371399 682.747498,771.208252 682.670105,769.050537 
	C682.577881,766.479553 683.438293,764.935913 686.286133,764.841858 
	C689.083374,764.749451 690.196411,766.076599 690.187317,768.735291 
	C690.163513,775.715820 690.174744,782.696411 690.190735,789.677002 
	C690.196350,792.115540 689.129639,793.287109 686.581787,793.322876 
	C683.841248,793.361328 682.640869,792.239929 682.687317,789.485779 
	C682.760193,785.165771 682.684875,780.843262 682.671814,776.026978 
z"/>
<path fill="#000000" opacity="1.000000" stroke="none" 
	d="
M391.318970,778.815308 
	C394.082397,778.779480 396.398529,778.733521 398.706848,778.847107 
	C400.275787,778.924255 401.034546,779.962158 401.073700,781.488037 
	C401.109924,782.898621 400.767059,784.246460 399.234253,784.633240 
	C396.315643,785.369629 393.063354,785.889954 390.494781,784.497742 
	C387.811310,783.043091 387.846283,780.571716 391.318970,778.815308 
z"/>
</svg>